<svg id="visual" viewBox="0 0 960 300" width="960" height="300" xmlns="http://www.w3.org/2000/svg" xmlns:xlink="http://www.w3.org/1999/xlink" version="1.1"><rect x="0" y="0" width="960" height="300" fill="#4d1100"></rect><path d="M0 134L20 134.7C40 135.3 80 136.7 120 136.3C160 136 200 134 240 136.2C280 138.3 320 144.7 360 143.3C400 142 440 133 480 127.3C520 121.7 560 119.3 600 118.8C640 118.3 680 119.7 720 123.7C760 127.7 800 134.3 840 134C880 133.7 920 126.3 940 122.7L960 119L960 301L940 301C920 301 880 301 840 301C800 301 760 301 720 301C680 301 640 301 600 301C560 301 520 301 480 301C440 301 400 301 360 301C320 301 280 301 240 301C200 301 160 301 120 301C80 301 40 301 20 301L0 301Z" fill="#5b1400"></path><path d="M0 159L20 157.2C40 155.3 80 151.7 120 152.7C160 153.7 200 159.3 240 159.8C280 160.3 320 155.7 360 160C400 164.3 440 177.7 480 181.7C520 185.7 560 180.3 600 178.8C640 177.3 680 179.7 720 175.2C760 170.7 800 159.3 840 158C880 156.7 920 165.3 940 169.7L960 174L960 301L940 301C920 301 880 301 840 301C800 301 760 301 720 301C680 301 640 301 600 301C560 301 520 301 480 301C440 301 400 301 360 301C320 301 280 301 240 301C200 301 160 301 120 301C80 301 40 301 20 301L0 301Z" fill="#641601"></path><path d="M0 181L20 181.2C40 181.3 80 181.7 120 186.7C160 191.7 200 201.3 240 202.5C280 203.7 320 196.3 360 194.7C400 193 440 197 480 202.2C520 207.3 560 213.7 600 210.3C640 207 680 194 720 192C760 190 800 199 840 199.3C880 199.7 920 191.3 940 187.2L960 183L960 301L940 301C920 301 880 301 840 301C800 301 760 301 720 301C680 301 640 301 600 301C560 301 520 301 480 301C440 301 400 301 360 301C320 301 280 301 240 301C200 301 160 301 120 301C80 301 40 301 20 301L0 301Z" fill="#6d1801"></path><path d="M0 221L20 223.7C40 226.3 80 231.7 120 230.5C160 229.3 200 221.7 240 221.2C280 220.7 320 227.3 360 230.3C400 233.3 440 232.7 480 234.7C520 236.7 560 241.3 600 242.7C640 244 680 242 720 238.5C760 235 800 230 840 230C880 230 920 235 940 237.5L960 240L960 301L940 301C920 301 880 301 840 301C800 301 760 301 720 301C680 301 640 301 600 301C560 301 520 301 480 301C440 301 400 301 360 301C320 301 280 301 240 301C200 301 160 301 120 301C80 301 40 301 20 301L0 301Z" fill="#761a01"></path><path d="M0 256L20 258.2C40 260.3 80 264.7 120 266.8C160 269 200 269 240 270.7C280 272.3 320 275.7 360 274.3C400 273 440 267 480 266.3C520 265.7 560 270.3 600 268.2C640 266 680 257 720 255.2C760 253.3 800 258.7 840 259C880 259.3 920 254.7 940 252.3L960 250L960 301L940 301C920 301 880 301 840 301C800 301 760 301 720 301C680 301 640 301 600 301C560 301 520 301 480 301C440 301 400 301 360 301C320 301 280 301 240 301C200 301 160 301 120 301C80 301 40 301 20 301L0 301Z" fill="#801c00"></path></svg>