<svg id="visual" viewBox="0 0 960 300" width="960" height="300" xmlns="http://www.w3.org/2000/svg" xmlns:xlink="http://www.w3.org/1999/xlink" version="1.1"><rect x="0" y="0" width="960" height="300" fill="#f77f00"></rect><path d="M0 105L20 107.5C40 110 80 115 120 114.3C160 113.7 200 107.3 240 103.3C280 99.3 320 97.7 360 101.7C400 105.7 440 115.3 480 115.2C520 115 560 105 600 103.7C640 102.3 680 109.7 720 108.5C760 107.3 800 97.7 840 97.8C880 98 920 108 940 113L960 118L960 301L940 301C920 301 880 301 840 301C800 301 760 301 720 301C680 301 640 301 600 301C560 301 520 301 480 301C440 301 400 301 360 301C320 301 280 301 240 301C200 301 160 301 120 301C80 301 40 301 20 301L0 301Z" fill="#f77f00"></path><path d="M0 131L20 131.3C40 131.7 80 132.3 120 139.5C160 146.7 200 160.3 240 163.8C280 167.3 320 160.7 360 157.7C400 154.7 440 155.3 480 152.3C520 149.3 560 142.7 600 145.8C640 149 680 162 720 166.8C760 171.7 800 168.3 840 163C880 157.7 920 150.3 940 146.7L960 143L960 301L940 301C920 301 880 301 840 301C800 301 760 301 720 301C680 301 640 301 600 301C560 301 520 301 480 301C440 301 400 301 360 301C320 301 280 301 240 301C200 301 160 301 120 301C80 301 40 301 20 301L0 301Z" fill="#f99015"></path><path d="M0 186L20 187C40 188 80 190 120 192.7C160 195.3 200 198.7 240 199.2C280 199.7 320 197.3 360 194.2C400 191 440 187 480 182.7C520 178.3 560 173.7 600 173.5C640 173.3 680 177.7 720 178.2C760 178.7 800 175.3 840 174.5C880 173.7 920 175.3 940 176.2L960 177L960 301L940 301C920 301 880 301 840 301C800 301 760 301 720 301C680 301 640 301 600 301C560 301 520 301 480 301C440 301 400 301 360 301C320 301 280 301 240 301C200 301 160 301 120 301C80 301 40 301 20 301L0 301Z" fill="#faa127"></path><path d="M0 201L20 202.2C40 203.3 80 205.7 120 206.7C160 207.7 200 207.3 240 206.7C280 206 320 205 360 209.5C400 214 440 224 480 229.8C520 235.7 560 237.3 600 234.8C640 232.3 680 225.7 720 219.5C760 213.3 800 207.7 840 211.3C880 215 920 228 940 234.5L960 241L960 301L940 301C920 301 880 301 840 301C800 301 760 301 720 301C680 301 640 301 600 301C560 301 520 301 480 301C440 301 400 301 360 301C320 301 280 301 240 301C200 301 160 301 120 301C80 301 40 301 20 301L0 301Z" fill="#fbb038"></path><path d="M0 263L20 261.7C40 260.3 80 257.7 120 253.8C160 250 200 245 240 243.5C280 242 320 244 360 247.2C400 250.3 440 254.7 480 258.2C520 261.7 560 264.3 600 264.7C640 265 680 263 720 258.7C760 254.3 800 247.7 840 250.3C880 253 920 265 940 271L960 277L960 301L940 301C920 301 880 301 840 301C800 301 760 301 720 301C680 301 640 301 600 301C560 301 520 301 480 301C440 301 400 301 360 301C320 301 280 301 240 301C200 301 160 301 120 301C80 301 40 301 20 301L0 301Z" fill="#fcbf49"></path></svg>