<svg xmlns="http://www.w3.org/2000/svg" xmlns:xlink="http://www.w3.org/1999/xlink" id="visual" width="960" height="300" version="1.1" viewBox="0 0 960 300"><rect width="960" height="300" x="0" y="0" fill="#e75414"/><path fill="#e75414" d="M0 94L20 102C40 110 80 126 120 129.2C160 132.3 200 122.7 240 113.7C280 104.7 320 96.3 360 96.7C400 97 440 106 480 111C520 116 560 117 600 115.7C640 114.3 680 110.7 720 110.5C760 110.3 800 113.7 840 110.8C880 108 920 99 940 94.5L960 90L960 301L940 301C920 301 880 301 840 301C800 301 760 301 720 301C680 301 640 301 600 301C560 301 520 301 480 301C440 301 400 301 360 301C320 301 280 301 240 301C200 301 160 301 120 301C80 301 40 301 20 301L0 301Z"/><path fill="#ec5f10" d="M0 136L20 139.2C40 142.3 80 148.7 120 153C160 157.3 200 159.7 240 158.8C280 158 320 154 360 156C400 158 440 166 480 163.8C520 161.7 560 149.3 600 144.2C640 139 680 141 720 139.3C760 137.7 800 132.3 840 129.8C880 127.3 920 127.7 940 127.8L960 128L960 301L940 301C920 301 880 301 840 301C800 301 760 301 720 301C680 301 640 301 600 301C560 301 520 301 480 301C440 301 400 301 360 301C320 301 280 301 240 301C200 301 160 301 120 301C80 301 40 301 20 301L0 301Z"/><path fill="#f06a0b" d="M0 172L20 175.5C40 179 80 186 120 184.8C160 183.7 200 174.3 240 172.8C280 171.3 320 177.7 360 184C400 190.3 440 196.7 480 196.8C520 197 560 191 600 192.3C640 193.7 680 202.3 720 203.3C760 204.3 800 197.7 840 196C880 194.3 920 197.7 940 199.3L960 201L960 301L940 301C920 301 880 301 840 301C800 301 760 301 720 301C680 301 640 301 600 301C560 301 520 301 480 301C440 301 400 301 360 301C320 301 280 301 240 301C200 301 160 301 120 301C80 301 40 301 20 301L0 301Z"/><path fill="#f47505" d="M0 202L20 206.8C40 211.7 80 221.3 120 221.7C160 222 200 213 240 210.8C280 208.7 320 213.3 360 214C400 214.7 440 211.3 480 215.5C520 219.7 560 231.3 600 235.3C640 239.3 680 235.7 720 232.5C760 229.3 800 226.7 840 225.8C880 225 920 226 940 226.5L960 227L960 301L940 301C920 301 880 301 840 301C800 301 760 301 720 301C680 301 640 301 600 301C560 301 520 301 480 301C440 301 400 301 360 301C320 301 280 301 240 301C200 301 160 301 120 301C80 301 40 301 20 301L0 301Z"/><path fill="#f77f00" d="M0 270L20 269.7C40 269.3 80 268.7 120 268.2C160 267.7 200 267.3 240 268.5C280 269.7 320 272.3 360 272.2C400 272 440 269 480 267.8C520 266.7 560 267.3 600 268.2C640 269 680 270 720 266.2C760 262.3 800 253.7 840 250.2C880 246.7 920 248.3 940 249.2L960 250L960 301L940 301C920 301 880 301 840 301C800 301 760 301 720 301C680 301 640 301 600 301C560 301 520 301 480 301C440 301 400 301 360 301C320 301 280 301 240 301C200 301 160 301 120 301C80 301 40 301 20 301L0 301Z"/></svg>