<svg id="visual" viewBox="0 0 960 300" width="960" height="300" xmlns="http://www.w3.org/2000/svg" xmlns:xlink="http://www.w3.org/1999/xlink" version="1.1"><rect x="0" y="0" width="960" height="300" fill="#ab2214"></rect><path d="M0 127L20 124.8C40 122.7 80 118.3 120 120.3C160 122.3 200 130.7 240 129C280 127.3 320 115.7 360 108.7C400 101.7 440 99.3 480 102.3C520 105.3 560 113.7 600 120.3C640 127 680 132 720 126.2C760 120.3 800 103.7 840 96C880 88.3 920 89.7 940 90.3L960 91L960 301L940 301C920 301 880 301 840 301C800 301 760 301 720 301C680 301 640 301 600 301C560 301 520 301 480 301C440 301 400 301 360 301C320 301 280 301 240 301C200 301 160 301 120 301C80 301 40 301 20 301L0 301Z" fill="#ab2214"></path><path d="M0 147L20 148.8C40 150.7 80 154.3 120 151.2C160 148 200 138 240 140.5C280 143 320 158 360 157.8C400 157.7 440 142.3 480 137C520 131.7 560 136.3 600 139.8C640 143.3 680 145.7 720 149.8C760 154 800 160 840 159.8C880 159.7 920 153.3 940 150.2L960 147L960 301L940 301C920 301 880 301 840 301C800 301 760 301 720 301C680 301 640 301 600 301C560 301 520 301 480 301C440 301 400 301 360 301C320 301 280 301 240 301C200 301 160 301 120 301C80 301 40 301 20 301L0 301Z" fill="#b52419"></path><path d="M0 198L20 192.8C40 187.7 80 177.3 120 176.7C160 176 200 185 240 186.2C280 187.3 320 180.7 360 177.3C400 174 440 174 480 176.5C520 179 560 184 600 186.5C640 189 680 189 720 189.3C760 189.7 800 190.3 840 191.5C880 192.7 920 194.3 940 195.2L960 196L960 301L940 301C920 301 880 301 840 301C800 301 760 301 720 301C680 301 640 301 600 301C560 301 520 301 480 301C440 301 400 301 360 301C320 301 280 301 240 301C200 301 160 301 120 301C80 301 40 301 20 301L0 301Z" fill="#c0251e"></path><path d="M0 241L20 239C40 237 80 233 120 226.8C160 220.7 200 212.3 240 214.2C280 216 320 228 360 233.2C400 238.3 440 236.7 480 234.3C520 232 560 229 600 227.2C640 225.3 680 224.7 720 225C760 225.3 800 226.7 840 226.3C880 226 920 224 940 223L960 222L960 301L940 301C920 301 880 301 840 301C800 301 760 301 720 301C680 301 640 301 600 301C560 301 520 301 480 301C440 301 400 301 360 301C320 301 280 301 240 301C200 301 160 301 120 301C80 301 40 301 20 301L0 301Z" fill="#cb2723"></path><path d="M0 270L20 266.8C40 263.7 80 257.3 120 258.7C160 260 200 269 240 268.5C280 268 320 258 360 253.2C400 248.3 440 248.7 480 253.2C520 257.7 560 266.3 600 270.7C640 275 680 275 720 274.7C760 274.3 800 273.7 840 273.5C880 273.3 920 273.7 940 273.8L960 274L960 301L940 301C920 301 880 301 840 301C800 301 760 301 720 301C680 301 640 301 600 301C560 301 520 301 480 301C440 301 400 301 360 301C320 301 280 301 240 301C200 301 160 301 120 301C80 301 40 301 20 301L0 301Z" fill="#d62828"></path></svg>