<svg id="visual" viewBox="0 0 900 300" width="900" height="300" xmlns="http://www.w3.org/2000/svg" xmlns:xlink="http://www.w3.org/1999/xlink" version="1.1"><rect x="0" y="0" width="900" height="300" fill="#fcbf49"></rect><path d="M0 88L25 87C50 86 100 84 150 81.8C200 79.7 250 77.3 300 81C350 84.7 400 94.3 450 95.3C500 96.3 550 88.7 600 88C650 87.3 700 93.7 750 98.2C800 102.7 850 105.3 875 106.7L900 108L900 301L875 301C850 301 800 301 750 301C700 301 650 301 600 301C550 301 500 301 450 301C400 301 350 301 300 301C250 301 200 301 150 301C100 301 50 301 25 301L0 301Z" fill="#fcbf49"></path><path d="M0 131L25 131.2C50 131.3 100 131.7 150 132.8C200 134 250 136 300 133.2C350 130.3 400 122.7 450 119.8C500 117 550 119 600 129C650 139 700 157 750 164.2C800 171.3 850 167.7 875 165.8L900 164L900 301L875 301C850 301 800 301 750 301C700 301 650 301 600 301C550 301 500 301 450 301C400 301 350 301 300 301C250 301 200 301 150 301C100 301 50 301 25 301L0 301Z" fill="#fad06e"></path><path d="M0 158L25 162.5C50 167 100 176 150 175.7C200 175.3 250 165.7 300 162.7C350 159.7 400 163.3 450 166.8C500 170.3 550 173.7 600 178.5C650 183.3 700 189.7 750 189.5C800 189.3 850 182.7 875 179.3L900 176L900 301L875 301C850 301 800 301 750 301C700 301 650 301 600 301C550 301 500 301 450 301C400 301 350 301 300 301C250 301 200 301 150 301C100 301 50 301 25 301L0 301Z" fill="#f9e093"></path><path d="M0 234L25 228.5C50 223 100 212 150 212.7C200 213.3 250 225.7 300 228.2C350 230.7 400 223.3 450 222.3C500 221.3 550 226.7 600 225.7C650 224.7 700 217.3 750 214C800 210.7 850 211.3 875 211.7L900 212L900 301L875 301C850 301 800 301 750 301C700 301 650 301 600 301C550 301 500 301 450 301C400 301 350 301 300 301C250 301 200 301 150 301C100 301 50 301 25 301L0 301Z" fill="#faefb8"></path><path d="M0 244L25 243.8C50 243.7 100 243.3 150 245.7C200 248 250 253 300 255.3C350 257.7 400 257.3 450 257.3C500 257.3 550 257.7 600 260.7C650 263.7 700 269.3 750 271C800 272.7 850 270.3 875 269.2L900 268L900 301L875 301C850 301 800 301 750 301C700 301 650 301 600 301C550 301 500 301 450 301C400 301 350 301 300 301C250 301 200 301 150 301C100 301 50 301 25 301L0 301Z" fill="#fffcdd"></path></svg>