<svg xmlns="http://www.w3.org/2000/svg" xmlns:xlink="http://www.w3.org/1999/xlink" id="visual" width="960" height="300" version="1.1" viewBox="0 0 960 300"><rect width="960" height="300" x="0" y="0" fill="#801c00"/><path fill="#801c00" d="M0 136L20 131C40 126 80 116 120 112.3C160 108.7 200 111.3 240 110.7C280 110 320 106 360 103.7C400 101.3 440 100.7 480 105.3C520 110 560 120 600 123.3C640 126.7 680 123.3 720 125.5C760 127.7 800 135.3 840 131C880 126.7 920 110.3 940 102.2L960 94L960 301L940 301C920 301 880 301 840 301C800 301 760 301 720 301C680 301 640 301 600 301C560 301 520 301 480 301C440 301 400 301 360 301C320 301 280 301 240 301C200 301 160 301 120 301C80 301 40 301 20 301L0 301Z"/><path fill="#8a1e05" d="M0 149L20 148.5C40 148 80 147 120 145C160 143 200 140 240 143.5C280 147 320 157 360 160C400 163 440 159 480 152.2C520 145.3 560 135.7 600 136.3C640 137 680 148 720 151.3C760 154.7 800 150.3 840 150C880 149.7 920 153.3 940 155.2L960 157L960 301L940 301C920 301 880 301 840 301C800 301 760 301 720 301C680 301 640 301 600 301C560 301 520 301 480 301C440 301 400 301 360 301C320 301 280 301 240 301C200 301 160 301 120 301C80 301 40 301 20 301L0 301Z"/><path fill="#951f0a" d="M0 206L20 199.5C40 193 80 180 120 175.5C160 171 200 175 240 178.2C280 181.3 320 183.7 360 187.8C400 192 440 198 480 199.7C520 201.3 560 198.7 600 193.3C640 188 680 180 720 178.2C760 176.3 800 180.7 840 185.5C880 190.3 920 195.7 940 198.3L960 201L960 301L940 301C920 301 880 301 840 301C800 301 760 301 720 301C680 301 640 301 600 301C560 301 520 301 480 301C440 301 400 301 360 301C320 301 280 301 240 301C200 301 160 301 120 301C80 301 40 301 20 301L0 301Z"/><path fill="#a0210f" d="M0 244L20 241.7C40 239.3 80 234.7 120 234.8C160 235 200 240 240 241.8C280 243.7 320 242.3 360 239C400 235.7 440 230.3 480 231C520 231.7 560 238.3 600 238.3C640 238.3 680 231.7 720 229.8C760 228 800 231 840 231C880 231 920 228 940 226.5L960 225L960 301L940 301C920 301 880 301 840 301C800 301 760 301 720 301C680 301 640 301 600 301C560 301 520 301 480 301C440 301 400 301 360 301C320 301 280 301 240 301C200 301 160 301 120 301C80 301 40 301 20 301L0 301Z"/><path fill="#ab2214" d="M0 273L20 271.8C40 270.7 80 268.3 120 268.8C160 269.3 200 272.7 240 272.8C280 273 320 270 360 268.3C400 266.7 440 266.3 480 262C520 257.7 560 249.3 600 250.5C640 251.7 680 262.3 720 263C760 263.7 800 254.3 840 253.2C880 252 920 259 940 262.5L960 266L960 301L940 301C920 301 880 301 840 301C800 301 760 301 720 301C680 301 640 301 600 301C560 301 520 301 480 301C440 301 400 301 360 301C320 301 280 301 240 301C200 301 160 301 120 301C80 301 40 301 20 301L0 301Z"/></svg>